<svg width="40" height="47" viewBox="0 0 40 47" fill="none" xmlns="http://www.w3.org/2000/svg">
<path d="M23.9777 3.00319C23.6201 2.01995 23.2626 0.992022 22.838 0.0311277C20.9385 0.00878133 19.0168 -0.0359117 17.1173 0.0534737C16.9385 0.433362 16.7821 0.81325 16.6257 1.19314C12 13.7741 7.3743 26.3551 2.77095 38.9362C1.8771 41.4836 0.826816 44.0088 0 46.601C1.92179 46.6903 3.93296 46.6903 5.85475 46.601C7.419 42.2211 9.00559 37.8188 10.5251 33.4166C9.69832 33.4166 8.89385 33.4389 8.06704 33.3943C8.02235 31.7406 8 30.087 8.11173 28.4557C9.49721 28.411 10.8827 28.411 12.2682 28.4781C11.7765 30.154 11.1061 31.763 10.5922 33.4166C16.1564 33.4389 21.6983 33.4166 27.2626 33.4166C27.9553 33.4166 28.6257 33.4166 29.3184 33.3719C28.8939 31.6736 28.1788 30.0423 27.6425 28.3663C26.9944 28.4334 26.3464 28.411 25.6983 28.411C21.2514 28.411 16.8045 28.411 12.3575 28.411C14.8156 21.4166 17.2961 14.4222 19.7989 7.42777C19.933 7.40543 20.0447 7.40543 20.1788 7.38308C22.4134 13.5283 24.5587 19.7183 26.7709 25.8859C27.1061 26.735 27.3073 27.763 27.8659 28.5004C29.1844 28.3663 30.5475 28.411 31.8659 28.4557C31.9106 30.087 31.933 31.7406 31.8659 33.3719C31.0615 33.4613 30.257 33.3943 29.4525 33.4389C30.9944 37.8412 32.5587 42.2434 34.1452 46.6457C36.0894 46.6457 38.0559 46.7127 40 46.601C37.2961 39.0926 34.5028 31.6065 31.7542 24.0982C29.1397 17.0367 26.5698 10.02 23.9777 3.00319Z" fill="black"/>
</svg>
