<svg width="50" height="59" viewBox="0 0 50 59" fill="none" xmlns="http://www.w3.org/2000/svg">
<path d="M29.9721 3.75399C29.5251 2.52494 29.0782 1.24003 28.5475 0.0389096C26.1732 0.0109767 23.7709 -0.0448897 21.3966 0.0668422C21.1732 0.541702 20.9777 1.01656 20.7821 1.49142C15 17.2177 9.21788 32.9439 3.46369 48.6702C2.34637 51.8545 1.03352 55.011 0 58.2512C2.40223 58.3629 4.9162 58.3629 7.31844 58.2512C9.27374 52.7763 11.257 47.2735 13.1564 41.7708C12.1229 41.7708 11.1173 41.7987 10.0838 41.7428C10.0279 39.6758 10 37.6087 10.1397 35.5696C11.8715 35.5138 13.6034 35.5138 15.3352 35.5976C14.7207 37.6925 13.8827 39.7037 13.2402 41.7708C20.1955 41.7987 27.1229 41.7708 34.0782 41.7708C34.9441 41.7708 35.7821 41.7708 36.648 41.7149C36.1173 39.592 35.2235 37.5529 34.5531 35.4579C33.743 35.5417 32.933 35.5138 32.1229 35.5138C26.5642 35.5138 21.0056 35.5138 15.4469 35.5138C18.5196 26.7708 21.6201 18.0277 24.7486 9.28472C24.9162 9.25678 25.0559 9.25678 25.2235 9.22885C28.0168 16.9104 30.6983 24.6478 33.4637 32.3573C33.8827 33.4188 34.1341 34.7037 34.8324 35.6255C36.4804 35.4579 38.1844 35.5138 39.8324 35.5696C39.8883 37.6087 39.9162 39.6758 39.8324 41.7149C38.8268 41.8266 37.8212 41.7428 36.8156 41.7987C38.743 47.3015 40.6983 52.8043 42.6816 58.3071C45.1117 58.3071 47.5698 58.3909 50 58.2512C46.6201 48.8657 43.1285 39.5082 39.6927 30.1227C36.4246 21.2959 33.2123 12.5249 29.9721 3.75399Z" fill="black"/>
</svg>
