<svg width="30" height="35" viewBox="0 0 30 35" fill="none" xmlns="http://www.w3.org/2000/svg">
<path d="M17.9832 2.2524C17.7151 1.51497 17.4469 0.744016 17.1285 0.0233458C15.7039 0.006586 14.2626 -0.0269338 12.838 0.0401053C12.7039 0.325022 12.5866 0.609937 12.4693 0.894854C9 10.3306 5.53073 19.7664 2.07821 29.2021C1.40782 31.1127 0.620112 33.0066 0 34.9507C1.44134 35.0178 2.94972 35.0178 4.39106 34.9507C5.56425 31.6658 6.75419 28.3641 7.89385 25.0625C7.27374 25.0625 6.67039 25.0792 6.05028 25.0457C6.01676 23.8055 6 22.5652 6.0838 21.3418C7.1229 21.3083 8.16201 21.3083 9.20112 21.3585C8.8324 22.6155 8.32961 23.8222 7.94413 25.0625C12.1173 25.0792 16.2737 25.0625 20.4469 25.0625C20.9665 25.0625 21.4693 25.0625 21.9888 25.0289C21.6704 23.7552 21.1341 22.5317 20.7318 21.2747C20.2458 21.325 19.7598 21.3083 19.2737 21.3083C15.9385 21.3083 12.6034 21.3083 9.26816 21.3083C11.1117 16.0625 12.9721 10.8166 14.8492 5.57083C14.9497 5.55407 15.0335 5.55407 15.1341 5.53731C16.8101 10.1463 18.419 14.7887 20.0782 19.4144C20.3296 20.0513 20.4804 20.8222 20.8994 21.3753C21.8883 21.2747 22.9106 21.3083 23.8994 21.3418C23.933 22.5652 23.9497 23.8055 23.8994 25.0289C23.2961 25.096 22.6927 25.0457 22.0894 25.0792C23.2458 28.3809 24.419 31.6826 25.6089 34.9842C27.067 34.9842 28.5419 35.0345 30 34.9507C27.9721 29.3194 25.8771 23.7049 23.8156 18.0736C21.8548 12.7775 19.9274 7.51497 17.9832 2.2524Z" fill="black"/>
</svg>
