<svg width="20" height="24" viewBox="0 0 20 24" fill="none" xmlns="http://www.w3.org/2000/svg">
<path d="M11.9888 1.5016C11.8101 1.00998 11.6313 0.496011 11.419 0.0155638C10.4693 0.00439067 9.50838 -0.0179559 8.55866 0.0267369C8.46927 0.216681 8.39106 0.406625 8.31285 0.596569C6 6.88707 3.68715 13.1776 1.38548 19.4681C0.938548 20.7418 0.413408 22.0044 0 23.3005C0.960894 23.3452 1.96648 23.3452 2.92737 23.3005C3.7095 21.1105 4.50279 18.9094 5.26257 16.7083C4.84916 16.7083 4.44693 16.7195 4.03352 16.6971C4.01117 15.8703 4 15.0435 4.05587 14.2279C4.7486 14.2055 5.44134 14.2055 6.13408 14.239C5.88827 15.077 5.55307 15.8815 5.29609 16.7083C8.07821 16.7195 10.8492 16.7083 13.6313 16.7083C13.9777 16.7083 14.3129 16.7083 14.6592 16.686C14.4469 15.8368 14.0894 15.0212 13.8212 14.1832C13.4972 14.2167 13.1732 14.2055 12.8492 14.2055C10.6257 14.2055 8.40223 14.2055 6.17877 14.2055C7.40782 10.7083 8.64804 7.21109 9.89944 3.71389C9.96648 3.70271 10.0223 3.70271 10.0894 3.69154C11.2067 6.76417 12.2793 9.85914 13.3855 12.9429C13.5531 13.3675 13.6536 13.8815 13.933 14.2502C14.5922 14.1832 15.2737 14.2055 15.933 14.2279C15.9553 15.0435 15.9665 15.8703 15.933 16.686C15.5307 16.7306 15.1285 16.6971 14.7263 16.7195C15.4972 18.9206 16.2793 21.1217 17.0726 23.3228C18.0447 23.3228 19.0279 23.3563 20 23.3005C18.648 19.5463 17.2514 15.8033 15.8771 12.0491C14.5698 8.51836 13.2849 5.00998 11.9888 1.5016Z" fill="black"/>
</svg>