<svg width="258" height="257" viewBox="0 0 258 257" fill="none" xmlns="http://www.w3.org/2000/svg">
<path d="M118.52 256.896H139.64L134.008 155.52L168.504 251.264L187.512 243.52L143.864 151.296L212.152 227.328L226.936 211.84L151.608 144.256L243.128 187.904L251.576 168.192L155.128 134.4L257.208 139.328V118.208L155.128 123.84L251.576 89.344L243.128 70.336L151.608 113.984L226.936 45.696L212.152 30.912L143.864 106.24L187.512 14.72L168.504 6.272L134.008 102.016L139.64 0.640015H118.52L123.448 102.72L89.656 6.272L69.944 14.72L113.592 106.24L46.008 30.912L30.52 45.696L106.552 113.984L14.328 70.336L6.584 89.344L102.328 123.84L0.952003 118.208V139.328L102.328 134.4L6.584 168.192L14.328 187.904L106.552 144.256L30.52 211.84L46.008 227.328L113.592 151.296L69.944 243.52L89.656 251.264L123.448 155.52L118.52 256.896Z" fill="black"/>
</svg>
